<svg xmlns="http://www.w3.org/2000/svg" viewBox="0 0 1200 800" role="img" aria-labelledby="title desc">
  <title>Alternator components</title>
  <desc>Illustrated alternator components for EGI Worldwide.</desc>
  <defs><linearGradient id="bg" x1="0" x2="1" y1="0" y2="1"><stop offset="0%" stop-color="#081b33"/><stop offset="100%" stop-color="#194d7b"/></linearGradient></defs>
  <rect width="1200" height="800" fill="url(#bg)" rx="36"/>
  <g opacity="0.12" stroke="#ffffff"><path d="M0 160h1200M0 320h1200M0 480h1200M0 640h1200"/><path d="M150 0v800M300 0v800M450 0v800M600 0v800M750 0v800M900 0v800M1050 0v800"/></g>
  <g transform="translate(170 200)">
    <circle cx="180" cy="200" r="98" fill="#f3f6fb"/>
    <circle cx="180" cy="200" r="36" fill="#ffd24a"/>
    <rect x="340" y="110" width="160" height="180" rx="26" fill="#d5deea"/>
    <rect x="560" y="120" width="210" height="68" rx="18" fill="#ffd24a"/>
    <rect x="560" y="212" width="210" height="68" rx="18" fill="#f3f6fb"/>
    <circle cx="828" cy="200" r="58" fill="#f3f6fb"/>
    <circle cx="828" cy="200" r="24" fill="#153b67"/>
  </g>
  <text x="90" y="122" fill="#ffd24a" font-size="30" font-family="Arial, sans-serif" font-weight="700" letter-spacing="5">EGI WORLDWIDE</text>
  <text x="90" y="665" fill="#ffffff" font-size="70" font-family="Arial, sans-serif" font-weight="700">Alternator Components</text>
  <text x="90" y="720" fill="#d9e3ef" font-size="28" font-family="Arial, sans-serif">Brushes, diodes, hardware, seals and support parts</text>
</svg>