<svg xmlns="http://www.w3.org/2000/svg" viewBox="0 0 1200 800" role="img" aria-labelledby="title desc">
  <title>Alternator</title>
  <desc>Illustrated alternator for EGI Worldwide.</desc>
  <defs><linearGradient id="bg" x1="0" x2="1" y1="0" y2="1"><stop offset="0%" stop-color="#091d36"/><stop offset="100%" stop-color="#184a79"/></linearGradient></defs>
  <rect width="1200" height="800" fill="url(#bg)" rx="36"/>
  <g opacity="0.12" stroke="#ffffff"><path d="M0 160h1200M0 320h1200M0 480h1200M0 640h1200"/><path d="M200 0v800M400 0v800M600 0v800M800 0v800M1000 0v800"/></g>
  <g transform="translate(250 180)">
    <circle cx="300" cy="210" r="160" fill="#f3f6fb"/>
    <circle cx="300" cy="210" r="92" fill="#153b67"/>
    <circle cx="300" cy="210" r="40" fill="#ffd24a"/>
    <rect x="430" y="120" width="180" height="180" rx="28" fill="#d5deea"/>
    <rect x="470" y="95" width="100" height="36" rx="12" fill="#ffd24a"/>
    <rect x="118" y="126" width="84" height="168" rx="18" fill="#d5deea"/>
    <path d="M170 100h260" stroke="#ffd24a" stroke-width="22" stroke-linecap="round"/>
    <path d="M170 320h260" stroke="#ffd24a" stroke-width="22" stroke-linecap="round"/>
  </g>
  <text x="90" y="122" fill="#ffd24a" font-size="30" font-family="Arial, sans-serif" font-weight="700" letter-spacing="5">EGI WORLDWIDE</text>
  <text x="90" y="665" fill="#ffffff" font-size="88" font-family="Arial, sans-serif" font-weight="700">Alternators</text>
  <text x="90" y="720" fill="#d9e3ef" font-size="28" font-family="Arial, sans-serif">Alternator inventory and electrical assemblies</text>
</svg>