<svg xmlns="http://www.w3.org/2000/svg" viewBox="0 0 1200 800" role="img" aria-labelledby="title desc">
  <title>Brushes for alternators</title>
  <desc>Illustrated alternator brushes for EGI Worldwide.</desc>
  <defs><linearGradient id="bg" x1="0" x2="1" y1="0" y2="1"><stop offset="0%" stop-color="#0a223d"/><stop offset="100%" stop-color="#184b77"/></linearGradient></defs>
  <rect width="1200" height="800" fill="url(#bg)" rx="36"/>
  <g opacity="0.12" stroke="#ffffff"><path d="M0 160h1200M0 320h1200M0 480h1200M0 640h1200"/><path d="M200 0v800M400 0v800M600 0v800M800 0v800M1000 0v800"/></g>
  <g transform="translate(250 200)">
    <rect x="120" y="140" width="160" height="190" rx="24" fill="#1b1b1b"/>
    <rect x="180" y="68" width="42" height="92" rx="12" fill="#d5deea"/>
    <rect x="360" y="140" width="160" height="190" rx="24" fill="#1b1b1b"/>
    <rect x="420" y="68" width="42" height="92" rx="12" fill="#d5deea"/>
    <circle cx="720" cy="220" r="110" fill="#f3f6fb"/>
    <circle cx="720" cy="220" r="44" fill="#ffd24a"/>
  </g>
  <text x="90" y="122" fill="#ffd24a" font-size="30" font-family="Arial, sans-serif" font-weight="700" letter-spacing="5">EGI WORLDWIDE</text>
  <text x="90" y="665" fill="#ffffff" font-size="68" font-family="Arial, sans-serif" font-weight="700">Brushes for Alternators</text>
  <text x="90" y="720" fill="#d9e3ef" font-size="28" font-family="Arial, sans-serif">High-volume alternator brush inventory</text>
</svg>