<svg xmlns="http://www.w3.org/2000/svg" viewBox="0 0 1200 800" role="img" aria-labelledby="title desc">
  <title>Equipment listings</title>
  <desc>Illustrated testing and fabrication equipment for EGI Worldwide.</desc>
  <defs><linearGradient id="bg" x1="0" x2="1" y1="0" y2="1"><stop offset="0%" stop-color="#0a223d"/><stop offset="100%" stop-color="#194d7a"/></linearGradient></defs>
  <rect width="1200" height="800" fill="url(#bg)" rx="36"/>
  <g opacity="0.12" stroke="#ffffff"><path d="M0 160h1200M0 320h1200M0 480h1200M0 640h1200"/><path d="M180 0v800M360 0v800M540 0v800M720 0v800M900 0v800M1080 0v800"/></g>
  <g transform="translate(200 190)">
    <rect x="110" y="120" width="360" height="230" rx="24" fill="#f3f6fb"/>
    <rect x="160" y="165" width="180" height="100" rx="16" fill="#153b67"/>
    <circle cx="400" cy="236" r="38" fill="#ffd24a"/>
    <rect x="550" y="150" width="230" height="170" rx="24" fill="#d5deea"/>
    <rect x="610" y="86" width="110" height="80" rx="14" fill="#ffd24a"/>
    <path d="M665 320v70M255 350v70M360 350v70M610 320h110" stroke="#f3f6fb" stroke-width="16" stroke-linecap="round"/>
  </g>
  <text x="90" y="122" fill="#ffd24a" font-size="30" font-family="Arial, sans-serif" font-weight="700" letter-spacing="5">EGI WORLDWIDE</text>
  <text x="90" y="665" fill="#ffffff" font-size="72" font-family="Arial, sans-serif" font-weight="700">Equipment Listings</text>
  <text x="90" y="720" fill="#d9e3ef" font-size="28" font-family="Arial, sans-serif">Fabrication, testing and industrial equipment categories</text>
</svg>