<svg xmlns="http://www.w3.org/2000/svg" viewBox="0 0 1200 800" role="img" aria-labelledby="title desc">
  <title>Insulators and diodes</title>
  <desc>Illustrated insulators and diodes for EGI Worldwide.</desc>
  <defs><linearGradient id="bg" x1="0" x2="1" y1="0" y2="1"><stop offset="0%" stop-color="#091f39"/><stop offset="100%" stop-color="#17466f"/></linearGradient></defs>
  <rect width="1200" height="800" fill="url(#bg)" rx="36"/>
  <g opacity="0.12" stroke="#ffffff"><path d="M0 160h1200M0 320h1200M0 480h1200M0 640h1200"/><path d="M180 0v800M360 0v800M540 0v800M720 0v800M900 0v800M1080 0v800"/></g>
  <g transform="translate(220 190)">
    <circle cx="180" cy="210" r="84" fill="#f3f6fb"/>
    <circle cx="180" cy="210" r="28" fill="#153b67"/>
    <path d="M370 138h180l-90 154z" fill="#ffd24a"/>
    <path d="M580 216h180" stroke="#f3f6fb" stroke-width="22" stroke-linecap="round"/>
    <path d="M530 138h92v154h-92z" fill="#d5deea"/>
    <rect x="730" y="154" width="120" height="116" rx="20" fill="#f3f6fb"/>
    <circle cx="790" cy="212" r="28" fill="#ffd24a"/>
  </g>
  <text x="90" y="122" fill="#ffd24a" font-size="30" font-family="Arial, sans-serif" font-weight="700" letter-spacing="5">EGI WORLDWIDE</text>
  <text x="90" y="665" fill="#ffffff" font-size="68" font-family="Arial, sans-serif" font-weight="700">Insulators and Diodes</text>
  <text x="90" y="720" fill="#d9e3ef" font-size="28" font-family="Arial, sans-serif">Electrical support parts for alternator systems</text>
</svg>