<svg xmlns="http://www.w3.org/2000/svg" viewBox="0 0 1200 800" role="img" aria-labelledby="title desc">
  <title>Starter motor</title>
  <desc>Illustrated starter motor for EGI Worldwide.</desc>
  <defs>
    <linearGradient id="bg" x1="0" x2="1" y1="0" y2="1">
      <stop offset="0%" stop-color="#0a2340"/>
      <stop offset="100%" stop-color="#153b67"/>
    </linearGradient>
  </defs>
  <rect width="1200" height="800" fill="url(#bg)" rx="36"/>
  <g opacity="0.12" stroke="#ffffff">
    <path d="M0 120h1200M0 240h1200M0 360h1200M0 480h1200M0 600h1200"/>
    <path d="M150 0v800M300 0v800M450 0v800M600 0v800M750 0v800M900 0v800M1050 0v800"/>
  </g>
  <g transform="translate(230 250)">
    <rect x="120" y="70" width="440" height="180" rx="90" fill="#f3f6fb"/>
    <rect x="520" y="110" width="170" height="100" rx="18" fill="#ffd24a"/>
    <rect x="655" y="135" width="140" height="50" rx="14" fill="#f3f6fb"/>
    <circle cx="230" cy="160" r="44" fill="#153b67"/>
    <circle cx="230" cy="160" r="22" fill="#ffd24a"/>
    <rect x="40" y="105" width="130" height="110" rx="18" fill="#d5deea"/>
    <rect x="0" y="132" width="70" height="56" rx="10" fill="#ffd24a"/>
    <circle cx="90" cy="160" r="14" fill="#153b67"/>
    <rect x="220" y="42" width="200" height="20" rx="10" fill="#d5deea"/>
  </g>
  <text x="90" y="122" fill="#ffd24a" font-size="30" font-family="Arial, sans-serif" font-weight="700" letter-spacing="5">EGI WORLDWIDE</text>
  <text x="90" y="665" fill="#ffffff" font-size="88" font-family="Arial, sans-serif" font-weight="700">Starters</text>
  <text x="90" y="720" fill="#d9e3ef" font-size="28" font-family="Arial, sans-serif">Starter inventory and component sourcing</text>
</svg>