<svg xmlns="http://www.w3.org/2000/svg" viewBox="0 0 1200 800" role="img" aria-labelledby="title desc">
  <title>Voltage regulators</title>
  <desc>Illustrated voltage regulators for EGI Worldwide.</desc>
  <defs><linearGradient id="bg" x1="0" x2="1" y1="0" y2="1"><stop offset="0%" stop-color="#091f39"/><stop offset="100%" stop-color="#174975"/></linearGradient></defs>
  <rect width="1200" height="800" fill="url(#bg)" rx="36"/>
  <g opacity="0.12" stroke="#ffffff"><path d="M0 160h1200M0 320h1200M0 480h1200M0 640h1200"/><path d="M150 0v800M300 0v800M450 0v800M600 0v800M750 0v800M900 0v800M1050 0v800"/></g>
  <g transform="translate(240 180)">
    <rect x="160" y="100" width="500" height="260" rx="30" fill="#1b2738" stroke="#f3f6fb" stroke-width="10"/>
    <rect x="250" y="168" width="180" height="124" rx="18" fill="#ffd24a"/>
    <rect x="470" y="168" width="110" height="30" rx="10" fill="#f3f6fb"/>
    <rect x="470" y="214" width="110" height="30" rx="10" fill="#f3f6fb"/>
    <rect x="470" y="260" width="110" height="30" rx="10" fill="#f3f6fb"/>
    <path d="M210 360v54M290 360v54M370 360v54M450 360v54M530 360v54M610 360v54" stroke="#d5deea" stroke-width="14" stroke-linecap="round"/>
  </g>
  <text x="90" y="122" fill="#ffd24a" font-size="30" font-family="Arial, sans-serif" font-weight="700" letter-spacing="5">EGI WORLDWIDE</text>
  <text x="90" y="665" fill="#ffffff" font-size="74" font-family="Arial, sans-serif" font-weight="700">Voltage Regulators</text>
  <text x="90" y="720" fill="#d9e3ef" font-size="28" font-family="Arial, sans-serif">Electronic regulation modules and component sourcing</text>
</svg>